<?xml version="1.0" encoding="UTF-8"?>
<svg xmlns="http://www.w3.org/2000/svg" width="1544" height="500" viewBox="0 0 1544 500">
  <defs>
    <linearGradient id="bg" x1="0" y1="0" x2="1" y2="0">
      <stop offset="0%" stop-color="#1f6aa5"/>
      <stop offset="100%" stop-color="#0f4d78"/>
    </linearGradient>
    <pattern id="nodes" width="40" height="40" patternUnits="userSpaceOnUse">
      <circle cx="20" cy="20" r="2" fill="#ffffff" opacity="0.05"/>
      <line x1="20" y1="0" x2="20" y2="40" stroke="#ffffff" stroke-width="1" opacity="0.03"/>
      <line x1="0" y1="20" x2="40" y2="20" stroke="#ffffff" stroke-width="1" opacity="0.03"/>
    </pattern>
  </defs>
  <rect width="1544" height="500" fill="url(#bg)"/>
  <rect width="1544" height="500" fill="url(#nodes)"/>

  <!-- Left: WordPress circle motif -->
  <g transform="translate(300,250)">
    <circle cx="0" cy="0" r="110" fill="#ffffff" opacity="0.10"/>
    <circle cx="0" cy="0" r="82" fill="none" stroke="#ffffff" stroke-width="10" opacity="0.9"/>
  </g>

  <!-- Right: Hive hex motif -->
  <g transform="translate(1240,250)">
    <polygon points="0,-90 78,-45 78,45 0,90 -78,45 -78,-45" fill="#E31337" opacity="0.9"/>
    <rect x="-120" y="-16" width="70" height="32" rx="16" fill="#E31337" opacity="0.9"/>
    <rect x="50" y="-16" width="70" height="32" rx="16" fill="#E31337" opacity="0.9"/>
  </g>

  <!-- Bridge arcs -->
  <path d="M460,180 C720,90 960,90 1080,180" fill="none" stroke="#ffffff" stroke-opacity="0.7" stroke-width="12" stroke-linecap="round"/>
  <path d="M460,320 C720,410 960,410 1080,320" fill="none" stroke="#ffffff" stroke-opacity="0.35" stroke-width="12" stroke-linecap="round"/>
</svg>
